<?xml version="1.0" encoding="UTF-8" standalone="no"?>
<!-- Created with Inkscape (http://www.inkscape.org/) -->

<svg
   viewBox="0 0 4.2 4.2"
   version="1.1"
   id="svg1"
   xmlns="http://www.w3.org/2000/svg"
   xmlns:svg="http://www.w3.org/2000/svg">
  <defs
     id="defs1" />
  <g
     id="g1"
     style="fill-opacity:1">
    <g
       id="layer1"
       style="fill-opacity:1">
      <path
         id="rect1"
         style="fill:#be8fff;fill-opacity:1;stroke-width:0.264583"
         d="M 1.1022583,0 C 0.4917481,0 0,0.4917481 0,1.1022583 V 3.131075 C 0,3.7415852 0.4917481,4.2333333 1.1022583,4.2333333 H 3.131075 c 0.6105102,0 1.1022583,-0.4917481 1.1022583,-1.1022583 V 1.1022583 C 4.2333333,0.4917481 3.7415852,0 3.131075,0 Z m -0.014986,0.42633057 h 2.0587891 c 0.3715271,0 0.6707601,0.29731825 0.6707601,0.66662593 v 2.0474203 c 0,0.3693077 -0.299233,0.666626 -0.6707601,0.666626 H 1.0872721 c -0.37152708,0 -0.67076006,-0.2973183 -0.67076006,-0.666626 V 1.0929565 c 0,-0.36930768 0.29923298,-0.66662593 0.67076026,-0.66662593 z" />
    </g>
    <rect
       style="fill:#be8fff;fill-opacity:1;stroke-width:1.05011"
       id="rect2"
       width="3.4828351"
       height="0.95762819"
       x="0.40414307"
       y="0.29874685" />
  </g>
</svg>
